<?xml version="1.0" encoding="UTF-8" standalone="no"?>
<svg width="16px" height="16px" viewBox="0 0 16 16" version="1.1" xmlns="http://www.w3.org/2000/svg" xmlns:xlink="http://www.w3.org/1999/xlink">
    <!-- Generator: Sketch 3.8.3 (29802) - http://www.bohemiancoding.com/sketch -->
    <title>Artboard</title>
    <desc>Created with Sketch.</desc>
    <defs></defs>
    <g id="Page-1" stroke="none" stroke-width="1" fill="none" fill-rule="evenodd">
        <path d="M16,9.44099379 L16,6.55900621 L14.2,6.26086957 C14.1,5.86335404 13.9,5.46583851 13.6,4.86956522 L14.7,3.37888199 L12.6,1.29192547 L11.1,2.38509317 C10.6,2.08695652 10.1,1.88819876 9.7,1.78881988 L9.5,0 L6.6,0 L6.3,1.78881988 C5.8,1.88819876 5.4,2.08695652 4.9,2.38509317 L3.4,1.29192547 L1.3,3.37888199 L2.3,4.86956522 C2,5.36645963 1.9,5.76397516 1.7,6.26086957 L0,6.45962733 L0,9.34161491 L1.8,9.63975155 C1.9,10.136646 2.1,10.5341615 2.4,11.0310559 L1.4,12.5217391 L3.5,14.6086957 L5,13.6149068 C5.4,13.8136646 5.9,14.0124224 6.4,14.2111801 L6.7,16 L9.7,16 L10,14.2111801 C10.5,14.1118012 10.9,13.9130435 11.4,13.6149068 L12.9,14.7080745 L15,12.621118 L13.9,11.1304348 C14.2,10.6335404 14.4,10.136646 14.5,9.73913043 L16,9.44099379 L16,9.44099379 Z M8,10.931677 C6.3,10.931677 5,9.63975155 5,7.95031056 C5,6.26086957 6.3,4.9689441 8,4.9689441 C9.7,4.9689441 11,6.26086957 11,7.95031056 C11,9.63975155 9.7,10.931677 8,10.931677 L8,10.931677 Z" id="Shape" fill="#FFFFFF"></path>
        <g id="Artboard">
            <g id="Gear_icon"></g>
        </g>
    </g>
</svg>