<?xml version="1.0" encoding="UTF-8" standalone="no"?>
<svg width="655px" height="383px" viewBox="0 0 655 383" version="1.1" xmlns="http://www.w3.org/2000/svg" xmlns:xlink="http://www.w3.org/1999/xlink" xmlns:sketch="http://www.bohemiancoding.com/sketch/ns">
    <!-- Generator: Sketch 3.4.4 (17249) - http://www.bohemiancoding.com/sketch -->
    <title>A4 Copy</title>
    <desc>Created with Sketch.</desc>
    <defs></defs>
    <g id="Page-1" stroke="none" stroke-width="1" fill="none" fill-rule="evenodd" sketch:type="MSPage">
        <g id="A4-Copy" sketch:type="MSArtboardGroup" fill="#FFFFFF">
            <g id="Group" sketch:type="MSLayerGroup" transform="translate(82.000000, 155.000000)">
                <path d="M475.402344,53.3476562 C476.316411,53.3476562 477.236323,53.2363292 478.162109,53.0136719 C479.087895,52.7910145 479.931637,52.4453148 480.693359,51.9765625 C481.455082,51.5078102 482.076169,50.9160192 482.556641,50.2011719 C483.037112,49.4863246 483.277344,48.6367237 483.277344,47.6523438 C483.277344,46.5039005 482.978519,45.5253947 482.380859,44.7167969 C481.7832,43.9081991 480.998052,43.1933625 480.025391,42.5722656 C479.05273,41.9511688 477.939459,41.3945337 476.685547,40.9023438 C475.431634,40.4101538 474.154303,39.9062526 472.853516,39.390625 C471.552728,38.8749974 470.281256,38.3066437 469.039062,37.6855469 C467.796869,37.06445 466.689458,36.3320355 465.716797,35.4882812 C464.744136,34.644527 463.958987,33.6367246 463.361328,32.4648438 C462.763669,31.2929629 462.464844,29.8984456 462.464844,28.28125 C462.464844,27.2734325 462.652342,26.1660217 463.027344,24.9589844 C463.402346,23.7519471 464.058589,22.621099 464.996094,21.5664062 C465.933598,20.5117135 467.193351,19.6269567 468.775391,18.9121094 C470.35743,18.1972621 472.355457,17.8398438 474.769531,17.8398438 C475.425785,17.8398438 476.123043,17.8867183 476.861328,17.9804688 C477.599613,18.0742192 478.355465,18.2441394 479.128906,18.4902344 C479.902348,18.7363294 480.675777,19.0585918 481.449219,19.4570312 C482.22266,19.8554707 482.984371,20.3476533 483.734375,20.9335938 L483.558594,18.1914062 L486.582031,18.1914062 L486.582031,30.8125 L484.332031,30.8125 C484.238281,29.5703063 483.998049,28.3398498 483.611328,27.1210938 C483.224607,25.9023377 482.662113,24.8066455 481.923828,23.8339844 C481.185543,22.8613233 480.253912,22.0703155 479.128906,21.4609375 C478.003901,20.8515595 476.667976,20.546875 475.121094,20.546875 C473.996088,20.546875 473.000004,20.6933579 472.132812,20.9863281 C471.265621,21.2792983 470.533206,21.6777319 469.935547,22.1816406 C469.337888,22.6855494 468.88672,23.2656217 468.582031,23.921875 C468.277342,24.5781283 468.125,25.2695276 468.125,25.9960938 C468.125,27.1679746 468.423825,28.175777 469.021484,29.0195312 C469.619144,29.8632855 470.410151,30.613278 471.394531,31.2695312 C472.378911,31.9257845 473.5039,32.5175755 474.769531,33.0449219 C476.035163,33.5722683 477.324212,34.1113254 478.636719,34.6621094 C479.949225,35.2128934 481.238275,35.798825 482.503906,36.4199219 C483.769538,37.0410187 484.894526,37.7734333 485.878906,38.6171875 C486.863286,39.4609417 487.654294,40.4453069 488.251953,41.5703125 C488.849612,42.6953181 489.148438,44.0312423 489.148438,45.578125 C489.148438,47.3828215 488.78516,48.9531183 488.058594,50.2890625 C487.332028,51.6250067 486.376959,52.7265582 485.193359,53.59375 C484.00976,54.4609418 482.673836,55.1054666 481.185547,55.5273438 C479.697258,55.9492209 478.191414,56.1601562 476.667969,56.1601562 C474.230457,56.1601562 472.085947,55.8378938 470.234375,55.1933594 C468.382803,54.5488249 466.859381,53.8164104 465.664062,52.9960938 L465.910156,55.4921875 L462.886719,55.4921875 L462.464844,43.1171875 L464.679688,43.1171875 C464.773438,44.617195 465.119138,45.9941344 465.716797,47.2480469 C466.314456,48.5019594 467.099605,49.5800736 468.072266,50.4824219 C469.044927,51.3847701 470.158197,52.0878881 471.412109,52.5917969 C472.666022,53.0957056 473.996087,53.3476562 475.402344,53.3476562 L475.402344,53.3476562 Z" id="Path" sketch:type="MSShapeGroup"></path>
                <path d="M443.9375,19 L457.050781,19 L457.050781,21.1445312 C455.832025,21.285157 454.666021,21.6308566 453.552734,22.1816406 C452.439448,22.7324246 451.396489,23.3828087 450.423828,24.1328125 C449.451167,24.8828163 448.554692,25.6679646 447.734375,26.4882812 C446.914058,27.3085979 446.175785,28.0468717 445.519531,28.703125 L439.929688,34.609375 C440.867192,35.0546897 441.675778,35.6054655 442.355469,36.2617188 C443.03516,36.917972 443.71484,37.6679645 444.394531,38.5117188 L449.492188,45.0507812 C449.632813,45.2382822 449.873045,45.5664039 450.212891,46.0351562 C450.552736,46.5039086 450.95117,47.0253878 451.408203,47.5996094 C451.865237,48.173831 452.374997,48.7714813 452.9375,49.3925781 C453.500003,50.013675 454.080075,50.5820287 454.677734,51.0976562 C455.275394,51.6132838 455.873044,52.0351546 456.470703,52.3632812 C457.068362,52.6914079 457.648435,52.8554688 458.210938,52.8554688 L458.210938,55 L451.671875,55 C451.015622,55 450.371097,54.8066426 449.738281,54.4199219 C449.105466,54.0332012 448.478519,53.5234407 447.857422,52.890625 C447.236325,52.2578093 446.615237,51.5371134 445.994141,50.7285156 C445.373044,49.9199178 444.734378,49.0820356 444.078125,48.2148438 C442.179678,45.6367059 440.574225,43.4043063 439.261719,41.5175781 C437.949212,39.6308499 436.824223,38.242192 435.886719,37.3515625 L432.933594,37.4921875 L432.933594,47.3710938 C432.933594,48.3320361 432.921875,49.1816369 432.898438,49.9199219 C432.875,50.6582068 432.792969,51.4374959 432.652344,52.2578125 L437.257812,52.046875 L437.257812,55 L422.5625,55 L422.5625,52.8554688 C423.664068,52.8554688 424.50195,52.638674 425.076172,52.2050781 C425.650393,51.7714822 426.060546,51.1679726 426.306641,50.3945312 C426.552736,49.6210899 426.699219,48.6953179 426.746094,47.6171875 C426.792969,46.5390571 426.816406,34.00012 426.816406,10 C426.816406,9.24999625 426.822266,8.52344102 426.833984,7.8203125 C426.845703,7.11718398 426.910156,6.28516105 427.027344,5.32421875 L421.929688,5.60546875 L421.929688,2.58203125 C423.500008,2.58203125 424.800776,2.5292974 425.832031,2.42382812 C426.863286,2.31835885 427.707028,2.17187594 428.363281,1.984375 C429.019535,1.79687406 429.529295,1.59179799 429.892578,1.36914062 C430.255861,1.14648326 430.578124,0.906251289 430.859375,0.6484375 L432.933594,0.6484375 L432.933594,34.6796875 L435.816406,34.6796875 L444.605469,25.46875 C445.402348,24.6484334 446.140622,23.9160188 446.820312,23.2714844 C447.500003,22.6269499 448.179684,22.0937521 448.859375,21.671875 L443.9375,21.8828125 L443.9375,19 Z" id="Path" sketch:type="MSShapeGroup"></path>
                <path d="M413,21.7773438 C412.085933,21.7539061 411.160161,21.9238263 410.222656,22.2871094 C409.285152,22.6503924 408.365239,23.1835902 407.462891,23.8867188 C406.560542,24.5898473 405.710941,25.4335888 404.914062,26.4179688 C404.117184,27.4023487 403.402347,28.4921815 402.769531,29.6875 L402.839844,47.3710938 C402.839844,48.3320361 402.828125,49.1816369 402.804688,49.9199219 C402.78125,50.6582068 402.699219,51.4374959 402.558594,52.2578125 L407.09375,52.046875 L407.09375,55 L392.328125,55 L392.328125,52.8554688 C393.429693,52.8554688 394.267575,52.638674 394.841797,52.2050781 C395.416018,51.7714822 395.83203,51.1679726 396.089844,50.3945312 C396.347658,49.6210899 396.49414,48.6953179 396.529297,47.6171875 C396.564453,46.5390571 396.582031,45.3554752 396.582031,44.0664062 L396.582031,27.6132812 C396.582031,26.8632775 396.59375,26.1074257 396.617188,25.3457031 C396.640625,24.5839806 396.722656,23.7929729 396.863281,22.9726562 L391.765625,23.1835938 L391.765625,20.2304688 L393.980469,20.2304688 C395.011724,20.2304688 395.867184,20.1777349 396.546875,20.0722656 C397.226566,19.9667963 397.79492,19.8203134 398.251953,19.6328125 C398.708987,19.4453116 399.089842,19.2402355 399.394531,19.0175781 C399.69922,18.7949208 399.992186,18.5546888 400.273438,18.296875 L402.347656,18.296875 C402.417969,19.0468788 402.482422,19.9785101 402.541016,21.0917969 C402.59961,22.2050837 402.652344,23.6406162 402.699219,25.3984375 C403.238284,24.507808 403.929683,23.6113326 404.773438,22.7089844 C405.617192,21.8066361 406.566401,20.9980504 407.621094,20.2832031 C408.675787,19.5683558 409.812494,18.9824242 411.03125,18.5253906 C412.250006,18.0683571 413.5039,17.8398438 414.792969,17.8398438 C415.449222,17.8398438 416.087888,17.9277335 416.708984,18.1035156 C417.330081,18.2792978 417.869138,18.5546856 418.326172,18.9296875 C418.783205,19.3046894 419.152342,19.7734347 419.433594,20.3359375 C419.714845,20.8984403 419.855469,21.578121 419.855469,22.375 C419.855469,22.7031266 419.791016,23.0664043 419.662109,23.4648438 C419.533202,23.8632832 419.322267,24.2382795 419.029297,24.5898438 C418.736327,24.941408 418.36719,25.2343738 417.921875,25.46875 C417.47656,25.7031262 416.925785,25.8203125 416.269531,25.8203125 C415.730466,25.8203125 415.244143,25.7031262 414.810547,25.46875 C414.376951,25.2343738 414.013673,24.9355487 413.720703,24.5722656 C413.427733,24.2089826 413.216798,23.7871118 413.087891,23.3066406 C412.958984,22.8261695 412.929687,22.3164089 413,21.7773438 L413,21.7773438 Z" id="Path" sketch:type="MSShapeGroup"></path>
                <path d="M388,41.5882353 L388,34.0823529 L383.3875,33.3058824 C383.13125,32.2705882 382.61875,31.2352941 381.85,29.6823529 L384.66875,25.8 L379.2875,20.3647059 L375.44375,23.2117647 C374.1625,22.4352941 372.88125,21.9176471 371.85625,21.6588235 L371.34375,17 L363.9125,17 L363.14375,21.6588235 C361.8625,21.9176471 360.8375,22.4352941 359.55625,23.2117647 L355.7125,20.3647059 L350.33125,25.8 L352.89375,29.6823529 C352.125,30.9764706 351.86875,32.0117647 351.35625,33.3058824 L347,33.8235294 L347,41.3294118 L351.6125,42.1058824 C351.86875,43.4 352.38125,44.4352941 353.15,45.7294118 L350.5875,49.6117647 L355.96875,55.0470588 L359.8125,52.4588235 C360.8375,52.9764706 362.11875,53.4941176 363.4,54.0117647 L364.16875,58.6705882 L371.85625,58.6705882 L372.625,54.0117647 C373.90625,53.7529412 374.93125,53.2352941 376.2125,52.4588235 L380.05625,55.3058824 L385.4375,49.8705882 L382.61875,45.9882353 C383.3875,44.6941176 383.9,43.4 384.15625,42.3647059 L388,41.5882353 L388,41.5882353 Z M367.5,45.4705882 C363.14375,45.4705882 359.8125,42.1058824 359.8125,37.7058824 C359.8125,33.3058824 363.14375,29.9411765 367.5,29.9411765 C371.85625,29.9411765 375.1875,33.3058824 375.1875,37.7058824 C375.1875,42.1058824 371.85625,45.4705882 367.5,45.4705882 L367.5,45.4705882 Z" id="Shape" sketch:type="MSShapeGroup"></path>
                <path d="M290.691406,19 L305.949219,19 L305.949219,21.1445312 C304.871088,21.1914065 304.050784,21.4082012 303.488281,21.7949219 C302.925778,22.1816426 302.556642,22.7148404 302.380859,23.3945312 C302.205077,24.0742221 302.199218,24.8828078 302.363281,25.8203125 C302.527345,26.7578172 302.808592,27.8007755 303.207031,28.9492188 L308.867188,45.9648438 C314.398465,29.5585117 317.410154,20.5703204 317.902344,19 L320.855469,19 L330.453125,46.4921875 C335.375025,32.2186786 338.005858,24.6543012 338.345703,23.7988281 C338.685549,22.9433551 339.078123,22.2460964 339.523438,21.7070312 L335.339844,21.953125 L335.339844,19 L347.855469,19 L347.855469,21.1445312 C346.613275,21.2148441 345.593754,21.3964829 344.796875,21.6894531 C343.999996,21.9824233 343.343753,22.3691382 342.828125,22.8496094 C342.312497,23.3300805 341.884767,23.9042935 341.544922,24.5722656 C341.205076,25.2402377 340.882814,26.0078082 340.578125,26.875 L330.207031,55.2109375 L327.324219,55.2109375 L317.902344,27.9648438 L308.550781,55.2109375 L305.808594,55.2109375 L296.386719,27.578125 C295.847654,26.0546799 295.431642,24.8418014 295.138672,23.9394531 C294.845702,23.0371049 294.640626,22.3046903 294.523438,21.7421875 L290.691406,21.953125 L290.691406,19 Z" id="Path" sketch:type="MSShapeGroup"></path>
                <path d="M233.667969,27.6484375 C233.667969,26.8984338 233.679687,26.1367226 233.703125,25.3632812 C233.726563,24.5898399 233.808593,23.7929729 233.949219,22.9726562 L228.851562,23.2539062 L228.851562,20.2304688 C230.421883,20.2304688 231.699214,20.1777349 232.683594,20.0722656 C233.667974,19.9667963 234.458981,19.8203134 235.056641,19.6328125 C235.6543,19.4453116 236.117186,19.2402355 236.445312,19.0175781 C236.773439,18.7949208 237.078124,18.5546888 237.359375,18.296875 L239.433594,18.296875 C239.480469,18.7656273 239.527344,19.3046845 239.574219,19.9140625 C239.621094,20.5234405 239.667969,21.2617144 239.714844,22.1289062 C240.44141,21.5195282 241.226558,20.9511745 242.070312,20.4238281 C242.914067,19.8964817 243.787105,19.4394551 244.689453,19.0527344 C245.591801,18.6660137 246.517573,18.3671886 247.466797,18.15625 C248.41602,17.9453114 249.35937,17.8398438 250.296875,17.8398438 C252.734387,17.8398438 254.761711,18.2792925 256.378906,19.1582031 C257.996102,20.0371138 259.261714,21.2148364 260.175781,22.6914062 C260.97266,22.0117154 261.851558,21.3789092 262.8125,20.7929688 C263.773442,20.2070283 264.769526,19.6914085 265.800781,19.2460938 C266.832036,18.800779 267.886713,18.4550794 268.964844,18.2089844 C270.042974,17.9628894 271.097651,17.8398438 272.128906,17.8398438 C274.214854,17.8398438 276.025383,18.1445282 277.560547,18.7539062 C279.095711,19.3632843 280.361323,20.3183529 281.357422,21.6191406 C282.353521,22.9199284 283.080076,24.5898336 283.537109,26.6289062 C283.994143,28.6679789 284.199219,31.1054546 284.152344,33.9414062 L284.082031,47.3710938 C284.082031,48.3320361 284.070313,49.1816369 284.046875,49.9199219 C284.023437,50.6582068 283.941407,51.4374959 283.800781,52.2578125 L288.335938,52.046875 L288.335938,55 L273.640625,55 L273.640625,52.8554688 C274.742193,52.8554688 275.580075,52.638674 276.154297,52.2050781 C276.728518,51.7714822 277.14453,51.1679726 277.402344,50.3945312 C277.660158,49.6210899 277.80664,48.6953179 277.841797,47.6171875 C277.876953,46.5390571 277.894531,45.3554752 277.894531,44.0664062 L277.894531,34.0117188 C277.894531,29.8632605 277.238288,26.7636821 275.925781,24.7128906 C274.613275,22.6620991 272.527358,21.6367188 269.667969,21.6367188 C268.167961,21.6367188 266.673836,21.9765591 265.185547,22.65625 C263.697258,23.3359409 262.402349,24.1796825 261.300781,25.1875 C261.792971,26.8046956 262.039062,28.5507719 262.039062,30.4257812 L261.898438,47.3710938 C261.898438,48.3320361 261.886719,49.1816369 261.863281,49.9199219 C261.839844,50.6582068 261.757813,51.4374959 261.617188,52.2578125 L266.152344,52.046875 L266.152344,55 L251.457031,55 L251.457031,52.8554688 C252.558599,52.8554688 253.396482,52.638674 253.970703,52.2050781 C254.544925,51.7714822 254.955077,51.1679726 255.201172,50.3945312 C255.447267,49.6210899 255.58789,48.6953179 255.623047,47.6171875 C255.658203,46.5390571 255.6875,45.3554752 255.710938,44.0664062 L255.78125,34.0117188 C255.804688,29.8866981 255.201178,26.7695418 253.970703,24.6601562 C252.740228,22.5507707 250.707045,21.4960938 247.871094,21.4960938 C246.394524,21.4960938 244.935554,21.8183562 243.494141,22.4628906 C242.052727,23.1074251 240.82813,23.9453073 239.820312,24.9765625 C239.820312,25.5390653 239.826172,26.1425749 239.837891,26.7871094 C239.849609,27.4316438 239.855469,28.1171839 239.855469,28.84375 L239.855469,47.3710938 C239.855469,48.3320361 239.84375,49.1816369 239.820312,49.9199219 C239.796875,50.6582068 239.714844,51.4374959 239.574219,52.2578125 L244.109375,52.046875 L244.109375,55 L229.414062,55 L229.414062,52.8554688 C230.515631,52.8554688 231.353513,52.638674 231.927734,52.2050781 C232.501956,51.7714822 232.917967,51.1679726 233.175781,50.3945312 C233.433595,49.6210899 233.580078,48.6953179 233.615234,47.6171875 C233.650391,46.5390571 233.667969,45.3554752 233.667969,44.0664062 L233.667969,27.6484375 Z" id="Path" sketch:type="MSShapeGroup"></path>
                <path d="M205.15625,17.8398438 C207.687513,17.8398438 210.054676,18.3027297 212.257812,19.2285156 C214.460949,20.1543015 216.376945,21.4316325 218.005859,23.0605469 C219.634774,24.6894613 220.923823,26.6230357 221.873047,28.8613281 C222.82227,31.0996206 223.296875,33.5195182 223.296875,36.1210938 C223.296875,38.9101702 222.833989,41.5234253 221.908203,43.9609375 C220.982417,46.3984497 219.705086,48.5195222 218.076172,50.3242188 C216.447257,52.1289153 214.525402,53.5527292 212.310547,54.5957031 C210.095692,55.6386771 207.71095,56.1601562 205.15625,56.1601562 C202.624987,56.1601562 200.263683,55.7089889 198.072266,54.8066406 C195.880848,53.9042924 193.970711,52.6445393 192.341797,51.0273438 C190.712882,49.4101482 189.429692,47.4824331 188.492188,45.2441406 C187.554683,43.0058482 187.085938,40.5507946 187.085938,37.8789062 C187.085938,35.0429546 187.548823,32.4004029 188.474609,29.9511719 C189.400395,27.5019409 190.671867,25.3808683 192.289062,23.5878906 C193.906258,21.7949129 195.816395,20.388677 198.019531,19.3691406 C200.222667,18.3496043 202.60155,17.8398438 205.15625,17.8398438 Z M205.15625,20.5820312 C203.257803,20.5820312 201.634772,21.003902 200.287109,21.8476562 C198.939446,22.6914105 197.832036,23.8163992 196.964844,25.2226562 C196.097652,26.6289133 195.458986,28.2460846 195.048828,30.0742188 C194.63867,31.9023529 194.433594,33.8007714 194.433594,35.7695312 C194.433594,37.9961049 194.662107,40.164052 195.119141,42.2734375 C195.576174,44.382823 196.273433,46.251945 197.210938,47.8808594 C198.148442,49.5097738 199.326165,50.8164013 200.744141,51.8007812 C202.162116,52.7851612 203.820303,53.2773438 205.71875,53.2773438 C207.617197,53.2773438 209.21679,52.8496137 210.517578,51.9941406 C211.818366,51.1386676 212.873043,50.0078195 213.681641,48.6015625 C214.490238,47.1953055 215.070311,45.5898528 215.421875,43.7851562 C215.773439,41.9804597 215.949219,40.1289157 215.949219,38.2304688 C215.949219,36.074208 215.750002,33.9414168 215.351562,31.8320312 C214.953123,29.7226457 214.320317,27.8359458 213.453125,26.171875 C212.585933,24.5078042 211.466804,23.1601614 210.095703,22.1289062 C208.724603,21.0976511 207.078135,20.5820312 205.15625,20.5820312 Z" id="Path" sketch:type="MSShapeGroup"></path>
                <path d="M177.136719,47.3710938 C177.136719,48.1210975 177.119141,48.8769493 177.083984,49.6386719 C177.048828,50.4003944 176.972657,51.2734326 176.855469,52.2578125 L181.953125,51.9765625 L181.953125,55 L171.652344,55 C171.535156,54.2968715 171.441407,53.640628 171.371094,53.03125 C171.300781,52.421872 171.242188,51.8242217 171.195312,51.2382812 C169.812493,52.7382887 168.142588,53.9335893 166.185547,54.8242188 C164.228506,55.7148482 162.042981,56.1601562 159.628906,56.1601562 C157.402333,56.1601562 155.345713,55.7382855 153.458984,54.8945312 C151.572256,54.050777 149.931648,52.8437579 148.537109,51.2734375 C147.142571,49.7031171 146.052738,47.7988393 145.267578,45.5605469 C144.482418,43.3222544 144.089844,40.8086077 144.089844,38.0195312 C144.089844,35.0898291 144.55273,32.3886842 145.478516,29.9160156 C146.404302,27.443347 147.687492,25.3105558 149.328125,23.5175781 C150.968758,21.7246004 152.919911,20.3300831 155.181641,19.3339844 C157.443371,18.3378856 159.910143,17.8398438 162.582031,17.8398438 C163.37891,17.8398438 164.175777,17.8984369 164.972656,18.015625 C165.769535,18.1328131 166.537106,18.2851553 167.275391,18.4726562 C168.013676,18.6601572 168.699216,18.8710926 169.332031,19.1054688 C169.964847,19.3398449 170.515623,19.5859362 170.984375,19.84375 L171.019531,10 C171.019531,9.24999625 171.025391,8.52344102 171.037109,7.8203125 C171.048828,7.11718398 171.113281,6.28516105 171.230469,5.32421875 L166.132812,5.60546875 L166.132812,2.58203125 C167.703133,2.58203125 169.003901,2.5292974 170.035156,2.42382812 C171.066411,2.31835885 171.910153,2.17187594 172.566406,1.984375 C173.22266,1.79687406 173.73242,1.59179799 174.095703,1.36914062 C174.458986,1.14648326 174.781249,0.906251289 175.0625,0.6484375 L177.136719,0.6484375 L177.136719,47.3710938 Z M162.230469,52.609375 C163.027348,52.609375 163.835933,52.4921887 164.65625,52.2578125 C165.476567,52.0234363 166.267574,51.6953146 167.029297,51.2734375 C167.791019,50.8515604 168.505856,50.3535185 169.173828,49.7792969 C169.8418,49.2050753 170.44531,48.5781284 170.984375,47.8984375 C170.960937,47.3124971 170.949219,46.6914095 170.949219,46.0351562 L170.949219,43.9257812 L170.984375,23.1835938 C169.835932,22.2929643 168.582038,21.6542988 167.222656,21.2675781 C165.863274,20.8808574 164.468757,20.6875 163.039062,20.6875 C161.234366,20.6875 159.605476,21.0859335 158.152344,21.8828125 C156.699211,22.6796915 155.462896,23.8105396 154.443359,25.2753906 C153.423823,26.7402417 152.67969,28.4101469 152.210938,30.2851562 C151.742185,32.1601656 151.507812,34.5156108 151.507812,37.3515625 C151.507812,39.2968847 151.771482,41.2714744 152.298828,43.2753906 C152.826175,45.2793069 153.541011,46.9550714 154.443359,48.3027344 C155.345708,49.6503974 156.447259,50.7050743 157.748047,51.4667969 C159.048835,52.2285194 160.54296,52.609375 162.230469,52.609375 Z" id="Path" sketch:type="MSShapeGroup"></path>
                <path d="M136.460938,17.5585938 C135.851559,17.6523442 135.312502,17.8457017 134.84375,18.1386719 C134.374998,18.4316421 133.964846,18.800779 133.613281,19.2460938 C133.261717,19.6914085 132.97461,20.1777317 132.751953,20.7050781 C132.529296,21.2324245 132.359376,21.7656223 132.242188,22.3046875 C133.437506,23.4062555 134.380856,24.6953051 135.072266,26.171875 C135.763675,27.6484449 136.109375,29.2187417 136.109375,30.8828125 C136.109375,32.9218852 135.693364,34.7910071 134.861328,36.4902344 C134.029293,38.1894616 132.910163,39.6542907 131.503906,40.8847656 C130.097649,42.1152405 128.474619,43.0703091 126.634766,43.75 C124.794913,44.4296909 122.867198,44.7695312 120.851562,44.7695312 C119.960933,44.7695312 119.169925,44.7109381 118.478516,44.59375 C117.787106,44.4765619 116.972661,44.4179688 116.035156,44.4179688 C115.144527,44.4179688 114.330082,44.5351551 113.591797,44.7695312 C112.853512,45.0039074 112.232424,45.3261698 111.728516,45.7363281 C111.224607,46.1464864 110.890626,46.5449199 110.726562,46.9316406 C110.562499,47.3183613 110.480469,47.6523423 110.480469,47.9335938 C110.480469,48.2148452 110.527343,48.507811 110.621094,48.8125 C110.785157,49.3750028 111.166013,49.8320295 111.763672,50.1835938 C112.361331,50.535158 113.14062,50.8105459 114.101562,51.0097656 C115.062505,51.2089854 116.205072,51.3554683 117.529297,51.4492188 C118.853522,51.5429692 120.347648,51.6249996 122.011719,51.6953125 C124.777358,51.8125006 127.255848,52.0761698 129.447266,52.4863281 C131.638683,52.8964864 133.496086,53.517574 135.019531,54.3496094 C136.542976,55.1816448 137.70898,56.259759 138.517578,57.5839844 C139.326176,58.9082097 139.730469,60.542959 139.730469,62.4882812 C139.730469,64.4336035 139.20899,66.1503832 138.166016,67.6386719 C137.123042,69.1269606 135.76368,70.3808543 134.087891,71.4003906 C132.412101,72.419927 130.525401,73.1933567 128.427734,73.7207031 C126.330068,74.2480495 124.214854,74.5117188 122.082031,74.5117188 C118.84764,74.5117188 116.087902,74.2304716 113.802734,73.6679688 C111.517567,73.1054659 109.660163,72.3613328 108.230469,71.4355469 C106.800774,70.509761 105.757816,69.4668027 105.101562,68.3066406 C104.445309,67.1464786 104.117188,65.968756 104.117188,64.7734375 C104.117188,63.6718695 104.328123,62.6640671 104.75,61.75 C105.171877,60.8359329 105.705075,60.0156286 106.349609,59.2890625 C106.994144,58.5624964 107.70898,57.9355495 108.494141,57.4082031 C109.279301,56.8808567 110.035153,56.4531266 110.761719,56.125 C109.214836,55.6562477 107.996098,54.9824263 107.105469,54.1035156 C106.214839,53.224605 105.769531,52.0117265 105.769531,50.4648438 C105.769531,49.6210895 105.945311,48.7949259 106.296875,47.9863281 C106.648439,47.1777303 107.140622,46.4335971 107.773438,45.7539062 C108.406253,45.0742154 109.162105,44.5000023 110.041016,44.03125 C110.919926,43.5624977 111.886713,43.2343759 112.941406,43.046875 C111.839838,42.5312474 110.843754,41.9043006 109.953125,41.1660156 C109.062496,40.4277307 108.300784,39.5957078 107.667969,38.6699219 C107.035153,37.744136 106.54883,36.7304743 106.208984,35.6289062 C105.869139,34.5273382 105.699219,33.3437563 105.699219,32.078125 C105.699219,29.9218642 106.138667,27.9648525 107.017578,26.2070312 C107.896489,24.44921 109.044915,22.949225 110.462891,21.7070312 C111.880866,20.4648375 113.498038,19.509769 115.314453,18.8417969 C117.130868,18.1738248 118.976553,17.8398438 120.851562,17.8398438 C122.468758,17.8398438 124.062492,18.0683571 125.632812,18.5253906 C127.203133,18.9824242 128.656243,19.6562455 129.992188,20.546875 C130.343752,19.5390575 130.824216,18.6015668 131.433594,17.734375 C132.042972,16.8671832 132.728512,16.12305 133.490234,15.5019531 C134.251957,14.8808563 135.078121,14.394533 135.96875,14.0429688 C136.859379,13.6914045 137.785151,13.515625 138.746094,13.515625 C139.96485,13.515625 140.9082,13.8320281 141.576172,14.4648438 C142.244144,15.0976594 142.578125,15.9765569 142.578125,17.1015625 C142.578125,17.3828139 142.519532,17.699217 142.402344,18.0507812 C142.285156,18.4023455 142.103517,18.7304672 141.857422,19.0351562 C141.611327,19.3398453 141.289064,19.5976552 140.890625,19.8085938 C140.492186,20.0195323 140.011722,20.1132814 139.449219,20.0898438 C138.628902,20.0664061 137.96094,19.8144555 137.445312,19.3339844 C136.929685,18.8535132 136.601563,18.2617223 136.460938,17.5585938 Z M120.710938,20.3710938 C119.421869,20.3710938 118.273443,20.6289037 117.265625,21.1445312 C116.257807,21.6601588 115.408207,22.3749954 114.716797,23.2890625 C114.025387,24.2031296 113.498049,25.2812438 113.134766,26.5234375 C112.771483,27.7656312 112.589844,29.1015554 112.589844,30.53125 C112.589844,32.2656337 112.777342,33.8417898 113.152344,35.2597656 C113.527346,36.6777415 114.078121,37.9023386 114.804688,38.9335938 C115.531254,39.9648489 116.42187,40.7617159 117.476562,41.3242188 C118.531255,41.8867216 119.726556,42.1679688 121.0625,42.1679688 C122.398444,42.1679688 123.564448,41.9218775 124.560547,41.4296875 C125.556646,40.9374975 126.388669,40.2519575 127.056641,39.3730469 C127.724613,38.4941362 128.228514,37.4511779 128.568359,36.2441406 C128.908205,35.0371033 129.078125,33.7304758 129.078125,32.3242188 C129.078125,30.7538984 128.902346,29.2421948 128.550781,27.7890625 C128.199217,26.3359302 127.671879,25.0644586 126.96875,23.9746094 C126.265621,22.8847602 125.392583,22.011722 124.349609,21.3554688 C123.306635,20.6992155 122.093757,20.3710938 120.710938,20.3710938 Z M121.34375,57.3554688 C120.007806,57.3085935 118.718756,57.2500004 117.476562,57.1796875 C116.234369,57.1093746 115.050787,56.9804697 113.925781,56.7929688 C112.589837,57.6601606 111.564457,58.7148375 110.849609,59.9570312 C110.134762,61.199225 109.777344,62.5234305 109.777344,63.9296875 C109.777344,65.125006 110.06445,66.1972609 110.638672,67.1464844 C111.212893,68.0957079 112.033198,68.9101529 113.099609,69.5898438 C114.166021,70.2695346 115.455071,70.7910138 116.966797,71.1542969 C118.478523,71.5175799 120.160147,71.6992188 122.011719,71.6992188 C124.074229,71.6992188 125.919914,71.4882834 127.548828,71.0664062 C129.177743,70.6445291 130.554682,70.0820348 131.679688,69.3789062 C132.804693,68.6757777 133.660153,67.8613328 134.246094,66.9355469 C134.832034,66.009761 135.125,65.0312552 135.125,64 C135.125,62.6640558 134.7793,61.5800823 134.087891,60.7480469 C133.396481,59.9160115 132.435553,59.259768 131.205078,58.7792969 C129.974603,58.2988257 128.521493,57.9589854 126.845703,57.7597656 C125.169913,57.5605459 123.335947,57.4257816 121.34375,57.3554688 Z" id="Path" sketch:type="MSShapeGroup"></path>
                <path d="M65.375,27.6484375 C65.375,26.8984338 65.3867186,26.1367226 65.4101562,25.3632812 C65.4335939,24.5898399 65.5156243,23.7929729 65.65625,22.9726562 L60.5585938,23.2539062 L60.5585938,20.2304688 C62.1289141,20.2304688 63.4062451,20.1777349 64.390625,20.0722656 C65.3750049,19.9667963 66.1660126,19.8203134 66.7636719,19.6328125 C67.3613311,19.4453116 67.8242171,19.2402355 68.1523438,19.0175781 C68.4804704,18.7949208 68.7851548,18.5546888 69.0664062,18.296875 L71.140625,18.296875 C71.1875002,18.8359402 71.2402341,19.4511684 71.2988281,20.1425781 C71.3574222,20.8339878 71.410156,21.6718701 71.4570312,22.65625 C72.2304726,21.9765591 73.0800735,21.3437529 74.0058594,20.7578125 C74.9316453,20.1718721 75.8984325,19.6621115 76.90625,19.2285156 C77.9140675,18.7949197 78.9511665,18.4550794 80.0175781,18.2089844 C81.0839897,17.9628894 82.1328073,17.8398438 83.1640625,17.8398438 C87.3359584,17.8398438 90.3828029,19.1464713 92.3046875,21.7597656 C94.2265721,24.3730599 95.1875,28.4335662 95.1875,33.9414062 L95.1875,47.3710938 C95.1875,48.3320361 95.1757814,49.1816369 95.1523438,49.9199219 C95.1289061,50.6582068 95.0468757,51.4374959 94.90625,52.2578125 L99.4414062,52.046875 L99.4414062,55 L84.7460938,55 L84.7460938,52.8554688 C85.8476618,52.8554688 86.685544,52.638674 87.2597656,52.2050781 C87.8339872,51.7714822 88.2499987,51.1679726 88.5078125,50.3945312 C88.7656263,49.6210899 88.9121092,48.6953179 88.9472656,47.6171875 C88.9824221,46.5390571 89,45.3554752 89,44.0664062 L89,34.0117188 C88.9531248,29.8632605 88.2734441,26.7402449 86.9609375,24.6425781 C85.6484309,22.5449114 83.5625143,21.4960938 80.703125,21.4960938 C79.8359332,21.4960938 78.9687543,21.6249987 78.1015625,21.8828125 C77.2343707,22.1406263 76.4023477,22.4746073 75.6054688,22.8847656 C74.8085898,23.2949239 74.0585973,23.7812472 73.3554688,24.34375 C72.6523402,24.9062528 72.0429713,25.5156217 71.5273438,26.171875 C71.5507814,26.5937521 71.5625,27.0449195 71.5625,27.5253906 L71.5625,28.984375 L71.4921875,47.3710938 C71.4921875,48.3320361 71.4804689,49.1816369 71.4570312,49.9199219 C71.4335936,50.6582068 71.3515632,51.4374959 71.2109375,52.2578125 L75.7460938,52.046875 L75.7460938,55 L61.0507812,55 L61.0507812,52.8554688 C62.1523493,52.8554688 62.9902315,52.638674 63.5644531,52.2050781 C64.1386747,51.7714822 64.5488269,51.1679726 64.7949219,50.3945312 C65.0410169,49.6210899 65.1816404,48.6953179 65.2167969,47.6171875 C65.2519533,46.5390571 65.2812499,45.3554752 65.3046875,44.0664062 L65.375,27.6484375 Z" id="Path" sketch:type="MSShapeGroup"></path>
                <path d="M50,17 L49,17 L49,18 L51.3,18 L51.3,17.025003 L51.3,2.8500061 L50.2465297,2.8500061 L50.2465297,2.83756437 L50.217306,2.8500061 L50,2.8500061 L50,2.94252226 L43.1999969,5.83756437 L50,8.73260648 L50,17 Z M45.2564941,24 C45.2025136,24.5398951 45.1645418,25.0294764 45.1425781,25.46875 C45.1074217,26.1718785 45.0898438,26.8984338 45.0898438,27.6484375 L45.0898438,44.0664062 C45.0898438,45.3554752 45.0722658,46.5390571 45.0371094,47.6171875 C45.0019529,48.6953179 44.85547,49.6210899 44.5976562,50.3945312 C44.3398425,51.1679726 43.923831,51.7714822 43.3496094,52.2050781 C42.7753878,52.638674 41.9375055,52.8554688 40.8359375,52.8554688 L40.8359375,55 L55.53125,55 L55.53125,52.046875 L50.9960938,52.2578125 C51.1367195,51.4374959 51.2187499,50.6582068 51.2421875,49.9199219 C51.2656251,49.1816369 51.2773438,48.3320361 51.2773438,47.3710938 L51.2773438,24 L51.2999973,24 L51.2999973,18 L40.1999969,18 L40.1999969,24 L45.2564941,24 Z M40.1999969,17 L41.9999969,17 L41.9999969,18 L40.1999969,18 L40.1999969,17 Z M43,17 L45,17 L45,18 L43,18 L43,17 Z M46,17 L48,17 L48,18 L46,18 L46,17 Z" id="Path" sketch:type="MSShapeGroup"></path>
                <path d="M22.8710938,19 L35.984375,19 L35.984375,21.1445312 C34.7656189,21.285157 33.5996149,21.6308566 32.4863281,22.1816406 C31.3730413,22.7324246 30.330083,23.3828087 29.3574219,24.1328125 C28.3847608,24.8828163 27.4882854,25.6679646 26.6679688,26.4882812 L24.453125,28.703125 L18.8632812,34.609375 C19.8007859,35.0546897 20.6093716,35.6054655 21.2890625,36.2617188 C21.9687534,36.917972 22.6484341,37.6679645 23.328125,38.5117188 L28.4257812,45.0507812 C28.566407,45.2382822 28.8066389,45.5664039 29.1464844,46.0351562 C29.4863298,46.5039086 29.8847633,47.0253878 30.3417969,47.5996094 C30.7988304,48.173831 31.3085909,48.7714813 31.8710938,49.3925781 C32.4335966,50.013675 33.0136689,50.5820287 33.6113281,51.0976562 C34.2089874,51.6132838 34.8066376,52.0351546 35.4042969,52.3632812 C36.0019561,52.6914079 36.5820284,52.8554688 37.1445312,52.8554688 L37.1445312,55 L30.6054688,55 C29.9492155,55 29.3046907,54.8066426 28.671875,54.4199219 C28.0390593,54.0332012 27.4121125,53.5234407 26.7910156,52.890625 C26.1699188,52.2578093 25.5488312,51.5371134 24.9277344,50.7285156 C24.3066375,49.9199178 23.667972,49.0820356 23.0117188,48.2148438 C21.1132718,45.6367059 19.5078191,43.4043063 18.1953125,41.5175781 C16.8828059,39.6308499 15.7578172,38.242192 14.8203125,37.3515625 L11.8671875,37.4921875 L11.8671875,47.3710938 C11.8671875,48.3320361 11.8554689,49.1816369 11.8320312,49.9199219 C11.8085936,50.6582068 11.7265632,51.4374959 11.5859375,52.2578125 L16.1914062,52.046875 L16.1914062,55 L1.49609375,55 L1.49609375,52.8554688 C2.59766176,52.8554688 3.435544,52.638674 4.00976562,52.2050781 C4.58398725,51.7714822 4.99413939,51.1679726 5.24023438,50.3945312 C5.48632936,49.6210899 5.63281227,48.6953179 5.6796875,47.6171875 C5.72656273,46.5390571 5.75,34.00012 5.75,10 C5.75,9.24999625 5.75585932,8.52344102 5.76757812,7.8203125 C5.77929693,7.11718398 5.84374941,6.28516105 5.9609375,5.32421875 L0.86328125,5.60546875 L0.86328125,2.58203125 C2.4336016,2.58203125 3.73436984,2.5292974 4.765625,2.42382812 C5.79688016,2.31835885 6.64062172,2.17187594 7.296875,1.984375 C7.95312828,1.79687406 8.46288881,1.59179799 8.82617188,1.36914062 C9.18945494,1.14648326 9.51171734,0.906251289 9.79296875,0.6484375 L11.8671875,0.6484375 L11.8671875,34.6796875 L14.75,34.6796875 L23.5390625,25.46875 C24.3359415,24.6484334 25.0742154,23.9160188 25.7539062,23.2714844 C26.4335971,22.6269499 27.1132779,22.0937521 27.7929688,21.671875 L22.8710938,21.8828125 L22.8710938,19 Z" id="Path" sketch:type="MSShapeGroup"></path>
            </g>
        </g>
    </g>
</svg>