<?xml version="1.0" encoding="UTF-8" standalone="no"?>
<svg width="100px" height="101px" viewBox="0 0 100 101" version="1.1" xmlns="http://www.w3.org/2000/svg" xmlns:xlink="http://www.w3.org/1999/xlink">
    <!-- Generator: Sketch 3.8.3 (29802) - http://www.bohemiancoding.com/sketch -->
    <title>Artboard 1</title>
    <desc>Created with Sketch.</desc>
    <defs></defs>
    <g id="Page-1" stroke="none" stroke-width="1" fill="none" fill-rule="evenodd">
        <g id="Artboard-1" fill="#FFFFFF">
            <path d="M13.501,2 L85.894,2 C92.769,2 98.394,7.09 98.394,14.5 L98.394,86.895 C98.394,94.305 92.769,99.395 85.894,99.395 L13.501,99.395 C6.624,99.395 1,94.305 1,86.895 L1,14.5 C1,7.09 6.624,2 13.501,2 Z M85.5652634,30.6313202 L82.6936357,30.6313202 C81.628094,30.6313202 80.3984676,32.0302222 80.3984676,33.016461 L80.3984676,68.7728103 C80.3984676,69.7622213 81.628094,71.2401377 82.6936357,71.2401377 L85.5652634,71.2401377 L85.5652634,79.543 L59.8198152,79.543 L59.8198152,71.2401377 L64.9845924,71.2401377 L64.9845924,33.6733769 L64.7383211,33.6733769 L52.0299702,79.5427116 L42.1892096,79.5427116 L29.6440784,33.6733769 L29.397807,33.6733769 L29.397807,71.2401377 L34.810009,71.2401377 L34.810009,79.543 L13,79.543 L13,71.2401377 L15.7865573,71.2401377 C16.9351507,71.2401377 18.1656423,69.7622213 18.1656423,68.7728103 L18.1656423,33.016461 C18.1656423,32.0302222 16.9351507,30.6313202 15.7865573,30.6313202 L13,30.6313202 L13,22 L40.222211,22 L49.1586309,55.3752457 L49.4049022,55.3752457 L58.4235087,22 L85.5646866,22 L85.5646866,30.6313202 L85.5652634,30.6313202 Z" id="Combined-Shape"></path>
        </g>
    </g>
</svg>